<svg xmlns="http://www.w3.org/2000/svg" xmlns:xlink="http://www.w3.org/1999/xlink" version="1.1" width="256" height="256" viewBox="0 0 256 256" xml:space="preserve">
<g style="stroke: none; stroke-width: 0; stroke-dasharray: none; stroke-linecap: butt; stroke-linejoin: miter; stroke-miterlimit: 10; fill: none; fill-rule: nonzero; opacity: 1;" transform="translate(1.4065934065934016 1.4065934065934016) scale(2.81 2.81)">
	<circle cx="45" cy="45" r="45" style="stroke: none; stroke-width: 1; stroke-dasharray: none; stroke-linecap: butt; stroke-linejoin: miter; stroke-miterlimit: 10; fill: rgb(47,68,137); fill-rule: nonzero; opacity: 1;" transform="  matrix(1 0 0 1 0 0) "/>
	<path d="M 31.542 36.023 l 8.007 0.708 c -2.34 4.75 -5.893 8.684 -11.344 11.344 l -7.562 -0.668 c -0.594 -0.053 -0.857 -0.775 -0.435 -1.197 l 9.531 -9.531 C 30.212 36.204 30.873 35.964 31.542 36.023 z" style="stroke: none; stroke-width: 1; stroke-dasharray: none; stroke-linecap: butt; stroke-linejoin: miter; stroke-miterlimit: 10; fill: rgb(238,82,83); fill-rule: nonzero; opacity: 1;" transform=" matrix(1 0 0 1 0 0) " stroke-linecap="round"/>
	<path d="M 53.27 50.452 l 0.708 8.007 c 0.059 0.669 -0.181 1.329 -0.656 1.804 l -9.531 9.531 c -0.422 0.422 -1.144 0.159 -1.197 -0.435 l -0.668 -7.562 C 44.181 56.908 48.116 53.238 53.27 50.452 z" style="stroke: none; stroke-width: 1; stroke-dasharray: none; stroke-linecap: butt; stroke-linejoin: miter; stroke-miterlimit: 10; fill: rgb(238,82,83); fill-rule: nonzero; opacity: 1;" transform=" matrix(1 0 0 1 0 0) " stroke-linecap="round"/>
	<path d="M 28.288 55.731 l 5.981 5.981 c 0.303 0.303 0.775 0.36 1.141 0.136 l 4.08 -2.488 c -1.692 -4.429 -4.847 -7.138 -8.85 -8.85 l -2.488 4.08 C 27.929 54.957 27.985 55.428 28.288 55.731 z" style="stroke: none; stroke-width: 1; stroke-dasharray: none; stroke-linecap: butt; stroke-linejoin: miter; stroke-miterlimit: 10; fill: rgb(121,138,156); fill-rule: nonzero; opacity: 1;" transform=" matrix(1 0 0 1 0 0) " stroke-linecap="round"/>
	<path d="M 52.447 24.807 c -1.715 1.075 -3.316 2.341 -4.765 3.789 L 28.204 48.074 l 13.721 13.721 l 19.478 -19.478 c 1.448 -1.448 2.714 -3.05 3.789 -4.765 C 62.343 32.119 58.174 27.803 52.447 24.807 z" style="stroke: none; stroke-width: 1; stroke-dasharray: none; stroke-linecap: butt; stroke-linejoin: miter; stroke-miterlimit: 10; fill: rgb(202,208,215); fill-rule: nonzero; opacity: 1;" transform=" matrix(1 0 0 1 0 0) " stroke-linecap="round"/>
	<path d="M 65.193 37.553 L 52.447 24.807 c 3.178 -1.992 6.751 -3.319 10.507 -3.862 l 6.503 -0.94 c 0.314 -0.045 0.584 0.224 0.538 0.538 l -0.94 6.503 C 68.512 30.802 67.185 34.376 65.193 37.553 z" style="stroke: none; stroke-width: 1; stroke-dasharray: none; stroke-linecap: butt; stroke-linejoin: miter; stroke-miterlimit: 10; fill: rgb(238,82,83); fill-rule: nonzero; opacity: 1;" transform=" matrix(1 0 0 1 0 0) " stroke-linecap="round"/>
	<circle cx="50.134" cy="39.864" r="4.754" style="stroke: none; stroke-width: 1; stroke-dasharray: none; stroke-linecap: butt; stroke-linejoin: miter; stroke-miterlimit: 10; fill: rgb(84,160,255); fill-rule: nonzero; opacity: 1;" transform="  matrix(1 0 0 1 0 0) "/>
	<path d="M 32.499 62.539 c -0.171 0.742 -0.541 1.448 -1.119 2.026 c -2.974 2.974 -5.439 2.08 -7.578 2.532 c -0.544 0.115 -1.013 -0.355 -0.898 -0.898 c 0.452 -2.14 -0.442 -4.604 2.532 -7.578 c 0.578 -0.578 1.284 -0.948 2.026 -1.119 L 32.499 62.539 z" style="stroke: none; stroke-width: 1; stroke-dasharray: none; stroke-linecap: butt; stroke-linejoin: miter; stroke-miterlimit: 10; fill: rgb(244,189,81); fill-rule: nonzero; opacity: 1;" transform=" matrix(1 0 0 1 0 0) " stroke-linecap="round"/>
	<path d="M 34.724 17.597 L 34.724 17.597 c -0.639 0 -1.157 -0.518 -1.157 -1.157 v 0 c 0 -0.152 -0.123 -0.276 -0.276 -0.276 h -0.584 c -0.152 0 -0.276 0.123 -0.276 0.276 v 0 c 0 0.639 -0.518 1.157 -1.157 1.157 h 0 c -0.152 0 -0.276 0.123 -0.276 0.276 v 0.584 c 0 0.152 0.123 0.276 0.276 0.276 h 0 c 0.639 0 1.157 0.518 1.157 1.157 l 0 0 c 0 0.152 0.123 0.276 0.276 0.276 h 0.584 c 0.152 0 0.276 -0.123 0.276 -0.276 l 0 0 c 0 -0.639 0.518 -1.157 1.157 -1.157 l 0 0 c 0.152 0 0.276 -0.123 0.276 -0.276 v -0.584 C 35 17.721 34.877 17.597 34.724 17.597 z" style="stroke: none; stroke-width: 1; stroke-dasharray: none; stroke-linecap: butt; stroke-linejoin: miter; stroke-miterlimit: 10; fill: rgb(202,208,215); fill-rule: nonzero; opacity: 1;" transform=" matrix(1 0 0 1 0 0) " stroke-linecap="round"/>
	<path d="M 17.862 29.881 L 17.862 29.881 c -0.319 0 -0.578 -0.259 -0.578 -0.578 v 0 c 0 -0.076 -0.062 -0.138 -0.138 -0.138 h -0.292 c -0.076 0 -0.138 0.062 -0.138 0.138 v 0 c 0 0.319 -0.259 0.578 -0.578 0.578 h 0 c -0.076 0 -0.138 0.062 -0.138 0.138 v 0.292 c 0 0.076 0.062 0.138 0.138 0.138 h 0 c 0.319 0 0.578 0.259 0.578 0.578 l 0 0 c 0 0.076 0.062 0.138 0.138 0.138 h 0.292 c 0.076 0 0.138 -0.062 0.138 -0.138 l 0 0 c 0 -0.319 0.259 -0.578 0.578 -0.578 l 0 0 c 0.076 0 0.138 -0.062 0.138 -0.138 v -0.292 C 18 29.943 17.938 29.881 17.862 29.881 z" style="stroke: none; stroke-width: 1; stroke-dasharray: none; stroke-linecap: butt; stroke-linejoin: miter; stroke-miterlimit: 10; fill: rgb(202,208,215); fill-rule: nonzero; opacity: 1;" transform=" matrix(1 0 0 1 0 0) " stroke-linecap="round"/>
	<path d="M 71.724 64.597 L 71.724 64.597 c -0.639 0 -1.157 -0.518 -1.157 -1.157 v 0 c 0 -0.152 -0.123 -0.276 -0.276 -0.276 h -0.584 c -0.152 0 -0.276 0.123 -0.276 0.276 v 0 c 0 0.639 -0.518 1.157 -1.157 1.157 h 0 c -0.152 0 -0.276 0.123 -0.276 0.276 v 0.584 c 0 0.152 0.123 0.276 0.276 0.276 h 0 c 0.639 0 1.157 0.518 1.157 1.157 l 0 0 c 0 0.152 0.123 0.276 0.276 0.276 h 0.584 c 0.152 0 0.276 -0.123 0.276 -0.276 l 0 0 c 0 -0.639 0.518 -1.157 1.157 -1.157 l 0 0 c 0.152 0 0.276 -0.123 0.276 -0.276 v -0.584 C 72 64.721 71.877 64.597 71.724 64.597 z" style="stroke: none; stroke-width: 1; stroke-dasharray: none; stroke-linecap: butt; stroke-linejoin: miter; stroke-miterlimit: 10; fill: rgb(202,208,215); fill-rule: nonzero; opacity: 1;" transform=" matrix(1 0 0 1 0 0) " stroke-linecap="round"/>
	<path d="M 75.862 45.881 L 75.862 45.881 c -0.319 0 -0.578 -0.259 -0.578 -0.578 v 0 c 0 -0.076 -0.062 -0.138 -0.138 -0.138 h -0.292 c -0.076 0 -0.138 0.062 -0.138 0.138 v 0 c 0 0.319 -0.259 0.578 -0.578 0.578 h 0 c -0.076 0 -0.138 0.062 -0.138 0.138 v 0.292 c 0 0.076 0.062 0.138 0.138 0.138 h 0 c 0.319 0 0.578 0.259 0.578 0.578 l 0 0 c 0 0.076 0.062 0.138 0.138 0.138 h 0.292 c 0.076 0 0.138 -0.062 0.138 -0.138 l 0 0 c 0 -0.319 0.259 -0.578 0.578 -0.578 l 0 0 c 0.076 0 0.138 -0.062 0.138 -0.138 v -0.292 C 76 45.943 75.938 45.881 75.862 45.881 z" style="stroke: none; stroke-width: 1; stroke-dasharray: none; stroke-linecap: butt; stroke-linejoin: miter; stroke-miterlimit: 10; fill: rgb(202,208,215); fill-rule: nonzero; opacity: 1;" transform=" matrix(1 0 0 1 0 0) " stroke-linecap="round"/>
	<path d="M 53.862 77.881 L 53.862 77.881 c -0.319 0 -0.578 -0.259 -0.578 -0.578 v 0 c 0 -0.076 -0.062 -0.138 -0.138 -0.138 h -0.292 c -0.076 0 -0.138 0.062 -0.138 0.138 v 0 c 0 0.319 -0.259 0.578 -0.578 0.578 h 0 c -0.076 0 -0.138 0.062 -0.138 0.138 v 0.292 c 0 0.076 0.062 0.138 0.138 0.138 h 0 c 0.319 0 0.578 0.259 0.578 0.578 l 0 0 c 0 0.076 0.062 0.138 0.138 0.138 h 0.292 c 0.076 0 0.138 -0.062 0.138 -0.138 l 0 0 c 0 -0.319 0.259 -0.578 0.578 -0.578 l 0 0 c 0.076 0 0.138 -0.062 0.138 -0.138 v -0.292 C 54 77.943 53.938 77.881 53.862 77.881 z" style="stroke: none; stroke-width: 1; stroke-dasharray: none; stroke-linecap: butt; stroke-linejoin: miter; stroke-miterlimit: 10; fill: rgb(202,208,215); fill-rule: nonzero; opacity: 1;" transform=" matrix(1 0 0 1 0 0) " stroke-linecap="round"/>
	<path d="M 51.862 12.881 L 51.862 12.881 c -0.319 0 -0.578 -0.259 -0.578 -0.578 v 0 c 0 -0.076 -0.062 -0.138 -0.138 -0.138 h -0.292 c -0.076 0 -0.138 0.062 -0.138 0.138 v 0 c 0 0.319 -0.259 0.578 -0.578 0.578 h 0 c -0.076 0 -0.138 0.062 -0.138 0.138 v 0.292 c 0 0.076 0.062 0.138 0.138 0.138 h 0 c 0.319 0 0.578 0.259 0.578 0.578 v 0 c 0 0.076 0.062 0.138 0.138 0.138 h 0.292 c 0.076 0 0.138 -0.062 0.138 -0.138 v 0 c 0 -0.319 0.259 -0.578 0.578 -0.578 l 0 0 c 0.076 0 0.138 -0.062 0.138 -0.138 v -0.292 C 52 12.943 51.938 12.881 51.862 12.881 z" style="stroke: none; stroke-width: 1; stroke-dasharray: none; stroke-linecap: butt; stroke-linejoin: miter; stroke-miterlimit: 10; fill: rgb(202,208,215); fill-rule: nonzero; opacity: 1;" transform=" matrix(1 0 0 1 0 0) " stroke-linecap="round"/>
</g>
</svg>